<?xml version="1.0" encoding="utf-8"?>
<!-- Generator: Adobe Illustrator 19.1.0, SVG Export Plug-In . SVG Version: 6.00 Build 0)  -->
<svg version="1.1" id="Layer_1" xmlns="http://www.w3.org/2000/svg" xmlns:xlink="http://www.w3.org/1999/xlink" x="0px" y="0px"
	 width="300.2px" height="297.9px" viewBox="142 -140.9 300.2 297.9" style="enable-background:new 142 -140.9 300.2 297.9;"
	 xml:space="preserve">
<path style="fill:#FFFFFF;" d="M332.4-140.9c-60.5,0-109.8,49.3-109.8,109.8c0,24.6,9,49.3,23.5,68.3L142,141.3l15.7,15.7
	L261.8,52.8c20.2,16.8,44.8,25.8,70.6,25.8c60.5,0,109.8-49.3,109.8-109.8C443.3-91.6,394-140.9,332.4-140.9z M419.8-31.2
	c0,48.2-39.2,87.4-87.4,87.4C284.2,56.2,245,17,245-31.2s39.2-87.4,87.4-87.4C380.6-118.5,419.8-79.3,419.8-31.2z"/>
</svg>
