<svg id="Layer_1" data-name="Layer 1" xmlns="http://www.w3.org/2000/svg" viewBox="0 0 474.5 42.18"><defs><style>.cls-1{fill:#333;}</style></defs><title>INHABIT-logo</title><path class="cls-1" d="M511.47,124.36a3.48,3.48,0,0,1-2.61,1H498.52V128h32v-2.69H520.6a4.21,4.21,0,0,1-2.83-.91,3.41,3.41,0,0,1-1.24-2.61v-28a4.25,4.25,0,0,1,1-2.94,4.43,4.43,0,0,1,3.26-1.29h9.62V86.65H498.63v2.92h9.64a4.57,4.57,0,0,1,3.21,1.29,4.2,4.2,0,0,1,1,2.95V122A3.29,3.29,0,0,1,511.47,124.36Zm-75.5.07a3.74,3.74,0,0,1-2.72.93H423V128h41.24l0.89,0a17.1,17.1,0,0,0,9.35-2.35,11,11,0,0,0,5.29-9,11.29,11.29,0,0,0-1.35-6.27,10.39,10.39,0,0,0-6.12-4.87l-0.53-.19,0.53-.19a7.1,7.1,0,0,0,3.58-2.69,10.46,10.46,0,0,0,1.63-5.94c-0.06-4.1-1.86-6.54-4-8a13.25,13.25,0,0,0-6.86-2H423.15v2.92h9.32A4.77,4.77,0,0,1,436.11,91a4,4,0,0,1,.9,2.74V122A3.64,3.64,0,0,1,436,124.43Zm5.07-35h23.52a8.83,8.83,0,0,1,5.75,1.8,7.18,7.18,0,0,1,2.76,5.09,7.32,7.32,0,0,1-2.33,5.67,7.74,7.74,0,0,1-4.91,2.13H441V89.4Zm0,17.18H465.1c4.31,0,6.84,1.59,8.32,3.42a9,9,0,0,1,2.11,5.46c0,4.21-1.8,6.36-3.95,7.73a14.16,14.16,0,0,1-7.11,1.92H441V106.58ZM547.34,86.73V97.39h2.45V93.76c0.16-4.74,3.79-4.15,3.79-4.15h16.27V122.2a3.55,3.55,0,0,1-3.63,3.16H555.87V128h32v-2.69h-9.91a3.75,3.75,0,0,1-4.07-3.16V89.61h16.51s3.63-.59,3.79,4.15v3.63h2.45V86.73H547.34ZM154.88,125.36H144.34a3.29,3.29,0,0,1-2.75-1.25,3.42,3.42,0,0,1-.7-2.23V93.68A3.83,3.83,0,0,1,142,90.84a4.31,4.31,0,0,1,2.94-1.26h9.83V86.65H123v2.92h9.76a4.38,4.38,0,0,1,3,1.28,3.66,3.66,0,0,1,1.09,2.83v28.2a3.54,3.54,0,0,1-.94,2.27,3.31,3.31,0,0,1-2.69,1.2H122.88V128h32v-2.69Zm32.23-35.79L224,127.79h5.06V93.13a3.09,3.09,0,0,1,.78-2.24,3.23,3.23,0,0,1,2.7-1.16h10.35V86.65h-32v3.08h10.27A3.59,3.59,0,0,1,224,90.82a3.29,3.29,0,0,1,.89,2.31v31.36h0l-36-37.84H169.22v2.92h10.15a3.91,3.91,0,0,1,2.74,1,3.44,3.44,0,0,1,1,2.71V122.2a3.34,3.34,0,0,1-.83,2.2,3.31,3.31,0,0,1-2.48,1H169.1V128h32v-2.69H190.43a3.34,3.34,0,0,1-2.51-1,3.08,3.08,0,0,1-.8-2.16V89.57h0Zm123.32,34.75a3.6,3.6,0,0,1-2.64,1H297.45V128h32v-2.69h-9.91a4.39,4.39,0,0,1-2.91-1,3.37,3.37,0,0,1-1.16-2.48V93.72a3.91,3.91,0,0,1,.78-2.63,4.23,4.23,0,0,1,3.47-1.51h9.62V86.65H297.56v2.92h9.64A4.47,4.47,0,0,1,310.54,91a3.58,3.58,0,0,1,.89,2.72v12H273.57v-12a3.77,3.77,0,0,1,1-2.9,4.52,4.52,0,0,1,3.25-1.24h9.62V86.65H255.68v2.92h9.64a4.09,4.09,0,0,1,3.14,1.21,3.93,3.93,0,0,1,1.09,2.94v28.37a3.48,3.48,0,0,1-3.63,3.27H255.56V128h32v-2.69h-9.91a4.1,4.1,0,0,1-2.93-1,3.21,3.21,0,0,1-1.14-2.48V108.24h37.86V121.9A3.68,3.68,0,0,1,310.43,124.33Zm81.26,0.48a1.57,1.57,0,0,1-1.46.55H379.07V128h32.47v-2.69H401.22a4.14,4.14,0,0,1-2.45-.79,5.45,5.45,0,0,1-1.31-1.7L377.77,86.61h-3.91l-19.2,36.26a5.65,5.65,0,0,1-1.32,1.67,3.84,3.84,0,0,1-2.37.82h-10.4V128H372.1v-2.69H360.94a1.59,1.59,0,0,1-1.53-.65,1.39,1.39,0,0,1,.11-1.49l4.69-9.48H387l4.69,9.48A1.7,1.7,0,0,1,391.69,124.81Zm-26.26-13.55,9.77-19.86H376l9.78,19.86h-20.3Z" transform="translate(-122.51 -86.24)"/><path class="cls-1" d="M588.24,128.42H555.49V125h10.72a3.16,3.16,0,0,0,3.26-2.82V90h-15.9a3,3,0,0,0-2.2.6,4.13,4.13,0,0,0-1.21,3.19v4H547V86.35h50V97.77h-3.2v-4a4.12,4.12,0,0,0-1.21-3.18,3,3,0,0,0-2.14-.6H574.25V122.2c0,0.07.36,2.79,3.69,2.79h10.29v3.44Zm-32-.75h31.24v-1.94h-9.54a4.14,4.14,0,0,1-4.44-3.5v-33h16.89a3.64,3.64,0,0,1,2.67.76,4.83,4.83,0,0,1,1.5,3.75V97h1.7V87.1H547.71V97h1.7V93.76A4.83,4.83,0,0,1,550.9,90a3.69,3.69,0,0,1,2.73-.76h16.59v33a3.94,3.94,0,0,1-4,3.54h-10v1.94Zm-25.36.75H498.14V125h10.72a3.13,3.13,0,0,0,2.34-.89h0a2.9,2.9,0,0,0,.9-2.09V93.81a3.86,3.86,0,0,0-.91-2.69,4.21,4.21,0,0,0-2.93-1.17h-10V86.28h32.51v3.67h-10a4.07,4.07,0,0,0-3,1.17,3.92,3.92,0,0,0-.89,2.69v28a3,3,0,0,0,1.12,2.33,3.88,3.88,0,0,0,2.57.81h10.29v3.44Zm-32-.75h31.24v-1.94H520.6a4.61,4.61,0,0,1-3.07-1,3.84,3.84,0,0,1-1.37-2.89v-28a4.65,4.65,0,0,1,1.09-3.19,4.78,4.78,0,0,1,3.56-1.41H530V87H499V89.2h9.26a4.91,4.91,0,0,1,3.49,1.4,4.6,4.6,0,0,1,1.12,3.2V122a3.68,3.68,0,0,1-1.14,2.63,3.86,3.86,0,0,1-2.87,1.11h-10v1.94Zm-75.86.75h-0.37V125h10.6a3.39,3.39,0,0,0,2.45-.81h0a3.3,3.3,0,0,0,.93-2.19V93.72a3.7,3.7,0,0,0-.81-2.49,4.39,4.39,0,0,0-3.33-1.28h-9.73V86.28h43.86a13.6,13.6,0,0,1,7.07,2c2.74,1.8,4.16,4.58,4.21,8.27a10.74,10.74,0,0,1-1.7,6.15,7.43,7.43,0,0,1-3.28,2.65,10.73,10.73,0,0,1,5.84,4.89,11.76,11.76,0,0,1,1.39,6.47,11.43,11.43,0,0,1-5.46,9.26,17.83,17.83,0,0,1-9.55,2.41l-0.88,0H423Zm0.38-.75,41.74,0h0.13a16.77,16.77,0,0,0,9-2.29,10.66,10.66,0,0,0,5.11-8.65,11.06,11.06,0,0,0-1.3-6.09,10.1,10.1,0,0,0-5.88-4.68l-1.57-.55,1.53-.54a6.75,6.75,0,0,0,3.4-2.55,10.13,10.13,0,0,0,1.56-5.7c0-3.44-1.35-6-3.87-7.67A13.05,13.05,0,0,0,466.64,87H423.53V89.2h8.95a5.11,5.11,0,0,1,3.92,1.53,4.42,4.42,0,0,1,1,3V122a4,4,0,0,1-1.15,2.73h0a4.12,4.12,0,0,1-3,1h-9.85v1.94Zm-11.49.75H378.7V125h11.53a1.26,1.26,0,0,0,1.14-.37,1.4,1.4,0,0,0-.06-1.25l-4.57-9.25H364.44l-4.58,9.27a1,1,0,0,0-.11,1.16,1.24,1.24,0,0,0,1.15.44h11.58v3.44H340.2V125H351a3.49,3.49,0,0,0,2.13-.73,5.33,5.33,0,0,0,1.23-1.56l19.3-36.46H378l19.8,36.46a5.08,5.08,0,0,0,1.22,1.59,3.77,3.77,0,0,0,2.22.71h10.69v3.44Zm-32.47-.75h31.72v-1.94h-9.94a4.4,4.4,0,0,1-2.71-.89,5.76,5.76,0,0,1-1.38-1.78L377.54,87h-3.46L355,123a6.07,6.07,0,0,1-1.41,1.78,4.24,4.24,0,0,1-2.62.9H341v1.94h30.77v-1.94H360.94a1.92,1.92,0,0,1-1.86-.86,1.75,1.75,0,0,1,.11-1.83l4.78-9.68H387.2l4.79,9.69a2.1,2.1,0,0,1,0,1.94h0a1.92,1.92,0,0,1-1.84.73H379.45v1.94Zm-49.63.75H297.07V125h10.72a3.25,3.25,0,0,0,2.37-.91h0a3.33,3.33,0,0,0,.89-2.17V108.61H273.94v13.25a2.82,2.82,0,0,0,1,2.19,3.78,3.78,0,0,0,2.69.93h10.29v3.44H255.18V125h10.72a3.1,3.1,0,0,0,3.26-2.9V93.72a3.6,3.6,0,0,0-1-2.67,3.71,3.71,0,0,0-2.83-1.1H255.3V86.28h32.51v3.67h-10a4.19,4.19,0,0,0-3,1.12,3.39,3.39,0,0,0-.9,2.65v11.65h37.11V93.72a3.2,3.2,0,0,0-.79-2.47,4.11,4.11,0,0,0-3-1.3h-10V86.28H329.7v3.67h-10a3.9,3.9,0,0,0-3.17,1.37,3.52,3.52,0,0,0-.7,2.4V121.9a3,3,0,0,0,1,2.19,4.06,4.06,0,0,0,2.66.89h10.29v3.44Zm-32-.75h31.24v-1.94h-9.54a4.75,4.75,0,0,1-3.16-1.08,3.73,3.73,0,0,1-1.28-2.75V93.72a4.25,4.25,0,0,1,.86-2.87,4.56,4.56,0,0,1,3.79-1.65h9.21V87h-31V89.2h9.26a4.81,4.81,0,0,1,3.62,1.55,3.94,3.94,0,0,1,1,3v12.4H273.19V93.72a4.11,4.11,0,0,1,1.09-3.15,4.87,4.87,0,0,1,3.55-1.38h9.22V87h-31V89.2h9.26a4.44,4.44,0,0,1,3.41,1.33,4.31,4.31,0,0,1,1.19,3.19v28.37a3.85,3.85,0,0,1-4,3.65h-10v1.94h31.24v-1.94h-9.54a4.49,4.49,0,0,1-3.18-1.12,3.55,3.55,0,0,1-1.26-2.75v-14H311.8v14a4.07,4.07,0,0,1-1.1,2.69,4,4,0,0,1-2.91,1.15h-10v1.94Zm-96.35.75H168.72V125h11a2.91,2.91,0,0,0,2.21-.84,3,3,0,0,0,.73-1.93V93.31a3.06,3.06,0,0,0-.86-2.45,3.56,3.56,0,0,0-2.45-.91H168.84V86.28H189l0.11,0.12,35.36,37.16V93.13a2.9,2.9,0,0,0-.79-2.05,3.19,3.19,0,0,0-2.55-1H210.51V86.28h32.74v3.83H232.53a2.89,2.89,0,0,0-2.4,1,2.72,2.72,0,0,0-.7,2v35.08h-5.59l-0.11-.11L187.48,90.5v31.7a2.74,2.74,0,0,0,.7,1.9,3,3,0,0,0,2.24.88h11v3.44Zm-32-.75h31.24v-1.94H190.43a3.7,3.7,0,0,1-2.79-1.12,3.45,3.45,0,0,1-.9-2.44V88.65l37.42,38.77h4.53V93.13a3.44,3.44,0,0,1,.87-2.49,3.6,3.6,0,0,1,3-1.29h10V87H211.26v2.33h9.89a3.93,3.93,0,0,1,3.07,1.19,3.65,3.65,0,0,1,1,2.59v31.21l0.5,0.53h-1.19V124.7L188.7,87H169.59V89.2h9.78a4.28,4.28,0,0,1,3,1.13,3.85,3.85,0,0,1,1.08,3V122.2a3.7,3.7,0,0,1-.94,2.46,3.64,3.64,0,0,1-2.76,1.08H169.47v1.94Zm-14.22.75H122.51V125h10.72a3,3,0,0,0,2.4-1.06,3.23,3.23,0,0,0,.85-2V93.68a3.32,3.32,0,0,0-1-2.56,4,4,0,0,0-2.74-1.18H122.63V86.28h32.51v3.67H144.92a4,4,0,0,0-2.66,1.14,3.46,3.46,0,0,0-1,2.59v28.21a3.08,3.08,0,0,0,.61,2,2.92,2.92,0,0,0,2.46,1.12h10.91v3.44Zm-32-.75H154.5v-1.94H144.34a3.64,3.64,0,0,1-3-1.4,3.77,3.77,0,0,1-.77-2.48V93.68a4.21,4.21,0,0,1,1.19-3.1,4.84,4.84,0,0,1,3.22-1.38h9.46V87h-31V89.2h9.38A4.71,4.71,0,0,1,136,90.58a4,4,0,0,1,1.2,3.1v28.2a3.91,3.91,0,0,1-1,2.52,3.66,3.66,0,0,1-3,1.33h-10v1.94Zm341.33-2.17H440.67V106.2H465.1c3.8,0,6.7,1.2,8.61,3.56a9.3,9.3,0,0,1,2.19,5.71c0,3.68-1.29,6.24-4.12,8A14.35,14.35,0,0,1,464.59,125.5Zm-23.17-.75h23a13.83,13.83,0,0,0,6.91-1.87c1.63-1,3.79-2.94,3.77-7.42a8.7,8.7,0,0,0-2-5.22c-1.77-2.19-4.47-3.29-8-3.29H441.42v17.79Zm-55.08-13.11h-21.5L375,91h1.22Zm-20.3-.75h19.09l-9.41-19.11h-0.28Zm99.8-6.42H440.67V89h23.9a9.22,9.22,0,0,1,6,1.88,7.58,7.58,0,0,1,2.91,5.38,7.7,7.7,0,0,1-2.45,5.95A8,8,0,0,1,465.84,104.46Zm-24.42-.75h24.42a7.34,7.34,0,0,0,4.66-2,7,7,0,0,0,2.2-5.39,6.78,6.78,0,0,0-2.62-4.79,8.51,8.51,0,0,0-5.52-1.73H441.42v13.94Z" transform="translate(-122.51 -86.24)"/></svg>